<svg width="112" height="105" viewBox="0 0 112 105" fill="none" xmlns="http://www.w3.org/2000/svg">
<rect width="112" height="105" fill="#187BD3"/>
<path fill-rule="evenodd" clip-rule="evenodd" d="M79.9058 27L70.5497 36.018C66.6062 32.9195 62.2646 31.2295 55.5043 31.2295C43.1627 31.2295 34.1456 40.6978 34.1456 52.2509V52.363C34.1456 58.6207 36.4546 64.0283 40.5154 67.8031L32.0043 77.4966C49.9837 60.137 63.5077 45.8759 79.9058 27ZM43.5009 52.1336C43.5009 45.2003 48.6841 39.4538 55.1661 39.4538C59.0531 39.4538 61.5925 40.4683 64.1276 42.2705C57.476 48.6969 52.5188 53.9923 46.4349 60.9255C44.5753 58.6721 43.5051 55.6866 43.5051 52.2457V52.1336H43.5009Z" fill="black"/>
<path fill-rule="evenodd" clip-rule="evenodd" d="M55.5608 56.9221H64.2971V62.7243C61.9872 64.3579 59.1139 65.2029 55.8425 65.2029C53.4204 65.2029 51.2226 64.5831 49.3596 63.4563L43.2192 69.8827C46.5993 72.0796 50.8288 73.3194 55.5608 73.3194C63.0009 73.3194 68.7474 70.4461 72.9161 66.893V49.2038H62.8887L55.5608 56.9221Z" fill="black"/>
</svg>