<svg width="33" height="33" viewBox="0 0 33 33" fill="none" xmlns="http://www.w3.org/2000/svg">
<path d="M11.1667 4.26025C7.49067 4.26025 4.5 7.25092 4.5 10.9269V21.5936C4.5 25.2696 7.49067 28.2603 11.1667 28.2603H21.8333C25.5093 28.2603 28.5 25.2696 28.5 21.5936V10.9269C28.5 7.25092 25.5093 4.26025 21.8333 4.26025H11.1667ZM11.1667 6.92692H21.8333C24.0387 6.92692 25.8333 8.72159 25.8333 10.9269V21.5936C25.8333 23.7989 24.0387 25.5936 21.8333 25.5936H11.1667C8.96133 25.5936 7.16667 23.7989 7.16667 21.5936V10.9269C7.16667 8.72159 8.96133 6.92692 11.1667 6.92692ZM23.1667 8.26025C22.813 8.26025 22.4739 8.40073 22.2239 8.65078C21.9738 8.90083 21.8333 9.23997 21.8333 9.59359C21.8333 9.94721 21.9738 10.2863 22.2239 10.5364C22.4739 10.7864 22.813 10.9269 23.1667 10.9269C23.5203 10.9269 23.8594 10.7864 24.1095 10.5364C24.3595 10.2863 24.5 9.94721 24.5 9.59359C24.5 9.23997 24.3595 8.90083 24.1095 8.65078C23.8594 8.40073 23.5203 8.26025 23.1667 8.26025ZM16.5 9.59359C12.824 9.59359 9.83333 12.5843 9.83333 16.2603C9.83333 19.9363 12.824 22.9269 16.5 22.9269C20.176 22.9269 23.1667 19.9363 23.1667 16.2603C23.1667 12.5843 20.176 9.59359 16.5 9.59359ZM16.5 12.2603C18.7053 12.2603 20.5 14.0549 20.5 16.2603C20.5 18.4656 18.7053 20.2603 16.5 20.2603C14.2947 20.2603 12.5 18.4656 12.5 16.2603C12.5 14.0549 14.2947 12.2603 16.5 12.2603Z" fill="white"/>
</svg>
