<svg width="41" height="40" viewBox="0 0 41 40" fill="none" xmlns="http://www.w3.org/2000/svg">
<g clip-path="url(#clip0_67_57)">
<path d="M20.5002 3.33331C14.0502 3.33331 8.8335 8.54998 8.8335 15C8.8335 23.75 20.5002 36.6666 20.5002 36.6666C20.5002 36.6666 32.1668 23.75 32.1668 15C32.1668 8.54998 26.9502 3.33331 20.5002 3.33331ZM12.1668 15C12.1668 10.4 15.9002 6.66665 20.5002 6.66665C25.1002 6.66665 28.8335 10.4 28.8335 15C28.8335 19.8 24.0335 26.9833 20.5002 31.4666C17.0335 27.0166 12.1668 19.75 12.1668 15Z" fill="white"/>
<path d="M20.5002 19.1666C22.8013 19.1666 24.6668 17.3012 24.6668 15C24.6668 12.6988 22.8013 10.8333 20.5002 10.8333C18.199 10.8333 16.3335 12.6988 16.3335 15C16.3335 17.3012 18.199 19.1666 20.5002 19.1666Z" fill="white"/>
</g>
<defs>
<clipPath id="clip0_67_57">
<rect width="40" height="40" fill="white" transform="translate(0.5)"/>
</clipPath>
</defs>
</svg>
