<svg width="48" height="51" viewBox="0 0 48 51" fill="none" xmlns="http://www.w3.org/2000/svg">
<path fill-rule="evenodd" clip-rule="evenodd" d="M47.9058 0L38.5497 9.01798C34.6062 5.91952 30.2646 4.22945 23.5043 4.22945C11.1627 4.22945 2.14555 13.6978 2.14555 25.2509V25.363C2.14555 31.6207 4.45463 37.0283 8.51541 40.8031L0.00428417 50.4966C17.9837 33.137 31.5077 18.8759 47.9058 0ZM11.5009 25.1336C11.5009 18.2003 16.6841 12.4538 23.1661 12.4538C27.0531 12.4538 29.5925 13.4683 32.1276 15.2705C25.476 21.6969 20.5188 26.9923 14.4349 33.9255C12.5753 31.6721 11.5051 28.6866 11.5051 25.2457V25.1336H11.5009Z" fill="white"/>
<path fill-rule="evenodd" clip-rule="evenodd" d="M23.5608 29.9221H32.2971V35.7243C29.9872 37.3579 27.1139 38.2029 23.8425 38.2029C21.4204 38.2029 19.2226 37.5831 17.3596 36.4563L11.2192 42.8827C14.5993 45.0796 18.8288 46.3194 23.5608 46.3194C31.0009 46.3194 36.7474 43.4461 40.9161 39.893V22.2038H30.8887L23.5608 29.9221Z" fill="white"/>
</svg>
