<svg width="41" height="40" viewBox="0 0 41 40" fill="none" xmlns="http://www.w3.org/2000/svg">
<g clip-path="url(#clip0_67_66)">
<path d="M32.1665 23.3334V10C32.1665 8.16669 30.6665 6.66669 28.8332 6.66669H5.49984C3.6665 6.66669 2.1665 8.16669 2.1665 10V23.3334C2.1665 25.1667 3.6665 26.6667 5.49984 26.6667H28.8332C30.6665 26.6667 32.1665 25.1667 32.1665 23.3334ZM28.8332 23.3334H5.49984V10H28.8332V23.3334ZM17.1665 11.6667C14.3998 11.6667 12.1665 13.9 12.1665 16.6667C12.1665 19.4334 14.3998 21.6667 17.1665 21.6667C19.9332 21.6667 22.1665 19.4334 22.1665 16.6667C22.1665 13.9 19.9332 11.6667 17.1665 11.6667ZM38.8332 11.6667V30C38.8332 31.8334 37.3332 33.3334 35.4998 33.3334H7.1665C7.1665 31.6667 7.1665 31.8334 7.1665 30H35.4998V11.6667C37.3332 11.6667 37.1665 11.6667 38.8332 11.6667Z" fill="white"/>
</g>
<defs>
<clipPath id="clip0_67_66">
<rect width="40" height="40" fill="white" transform="translate(0.5)"/>
</clipPath>
</defs>
</svg>
