<svg width="1134" height="1164" viewBox="0 0 1134 1164" fill="none" xmlns="http://www.w3.org/2000/svg">
<path fill-rule="evenodd" clip-rule="evenodd" d="M846.399 1.23247L732.183 213.243C645.079 180.822 558.903 175.51 439.579 213.686C221.741 283.382 116.052 501.427 181.295 705.347L181.928 707.327C217.267 817.78 288.561 900.187 381.554 943.883L286.068 1163.04C505.385 755.101 663.557 427.009 846.399 1.23247ZM345.76 650.445C306.607 528.069 365.642 397.367 480.054 360.761C548.662 338.811 599.214 342.378 654.138 359.872C573.024 510.865 515.431 632.327 447.199 789.06C401.65 759.787 365.901 713.135 346.469 652.401L345.836 650.421L345.76 650.445Z" fill="#10406B" fill-opacity="0.17"/>
<path fill-rule="evenodd" clip-rule="evenodd" d="M585.669 666.861L739.871 617.525L772.637 719.939C741.09 761.817 695.147 792.959 637.404 811.433C594.652 825.111 552.36 826.581 513.113 817.215L441.022 965.321C513.09 985.01 594.744 983.008 678.268 956.285C809.59 914.269 894.795 831.101 948.31 744.845L848.415 432.618L671.424 489.245L585.669 666.861Z" fill="#10406B" fill-opacity="0.17"/>
</svg>
