<svg width="41" height="40" viewBox="0 0 41 40" fill="none" xmlns="http://www.w3.org/2000/svg">
<g clip-path="url(#clip0_67_46)">
<path d="M20.5002 3.33331C11.3335 3.33331 3.8335 10.8333 3.8335 20C3.8335 29.1666 11.3335 36.6666 20.5002 36.6666C29.6668 36.6666 37.1668 29.1666 37.1668 20C37.1668 10.8333 29.6668 3.33331 20.5002 3.33331ZM20.5002 33.3333C13.1502 33.3333 7.16683 27.35 7.16683 20C7.16683 12.65 13.1502 6.66665 20.5002 6.66665C27.8502 6.66665 33.8335 12.65 33.8335 20C33.8335 27.35 27.8502 33.3333 20.5002 33.3333ZM21.3335 11.6666H18.8335V21.6666L27.5002 27L28.8335 24.8333L21.3335 20.3333V11.6666Z" fill="white"/>
</g>
<defs>
<clipPath id="clip0_67_46">
<rect width="40" height="40" fill="white" transform="translate(0.5)"/>
</clipPath>
</defs>
</svg>
